<svg width="34" height="34" viewBox="0 0 34 34" fill="none" xmlns="http://www.w3.org/2000/svg">
<rect x="4" y="4" width="26" height="26" rx="4" fill="#D9D9D9"/>
<path fill-rule="evenodd" clip-rule="evenodd" d="M17 12.042C19.7384 12.042 21.958 14.2616 21.958 17C21.958 19.7384 19.7384 21.958 17 21.958C14.2616 21.958 12.042 19.7384 12.042 17C12.042 14.2616 14.2616 12.042 17 12.042ZM10.625 17C10.625 20.5208 13.4792 23.375 17 23.375C20.5208 23.375 23.375 20.5208 23.375 17C23.375 13.4792 20.5208 10.625 17 10.625C13.4792 10.625 10.625 13.4792 10.625 17ZM16.292 17.708V19.125C16.292 19.5162 16.6088 19.833 17 19.833C17.3912 19.833 17.708 19.5162 17.708 19.125V17.708H19.125L19.2676 17.6943C19.5905 17.6284 19.833 17.3424 19.833 17C19.833 16.6576 19.5905 16.3716 19.2676 16.3057L19.125 16.292H17.708V14.875C17.708 14.4838 17.3912 14.167 17 14.167C16.6088 14.167 16.292 14.4838 16.292 14.875V16.292H14.875C14.4838 16.292 14.167 16.6088 14.167 17C14.167 17.3912 14.4838 17.708 14.875 17.708H16.292Z" fill="#181414"/>
</svg>
