<svg width="16" height="20" viewBox="0 0 16 20" fill="none" xmlns="http://www.w3.org/2000/svg">
<path d="M8.20995 4.88461C9.06755 4.88461 10.1426 4.30483 10.7827 3.53179C11.3625 2.83121 11.7853 1.85283 11.7853 0.874444C11.7853 0.741577 11.7732 0.608709 11.749 0.5C10.7948 0.536236 9.64733 1.14018 8.95884 1.94946C8.41529 2.56548 7.92006 3.53179 7.92006 4.52225C7.92006 4.6672 7.94422 4.81214 7.95629 4.86046C8.01669 4.87254 8.11332 4.88461 8.20995 4.88461ZM5.19024 19.5C6.36189 19.5 6.88128 18.7149 8.34282 18.7149C9.82851 18.7149 10.1546 19.4758 11.4592 19.4758C12.7395 19.4758 13.5971 18.2921 14.4064 17.1325C15.3123 15.8039 15.6867 14.4994 15.7109 14.439C15.6264 14.4148 13.1743 13.4123 13.1743 10.5979C13.1743 8.15798 15.107 7.0588 15.2157 6.97425C13.9353 5.13827 11.9906 5.08996 11.4592 5.08996C10.0218 5.08996 8.85013 5.95963 8.11332 5.95963C7.31612 5.95963 6.26526 5.13827 5.02114 5.13827C2.65369 5.13827 0.25 7.09504 0.25 10.7912C0.25 13.0861 1.14383 15.514 2.24301 17.0842C3.18516 18.4129 4.00652 19.5 5.19024 19.5Z" fill="white"/>
</svg>
